<svg width="265" height="265" viewBox="0 0 265 265" fill="none" xmlns="http://www.w3.org/2000/svg">
<path opacity="0.5" d="M97.733 128.248L69.1606 99.1627C68.6195 98.6124 68.1901 97.9589 67.8972 97.2395C67.6043 96.5202 67.4535 95.7491 67.4535 94.9704C67.4535 94.1917 67.6043 93.4207 67.8972 92.7013C68.1901 91.982 68.6195 91.3284 69.1606 90.7781L92.7214 66.7431C93.2596 66.1877 93.9009 65.7468 94.6079 65.4458C95.3149 65.1449 96.0736 64.9899 96.8399 64.9899C97.6062 64.9899 98.3649 65.1449 99.0719 65.4458C99.7789 65.7468 100.42 66.1877 100.958 66.7431L161.379 128.248C161.923 128.795 162.356 129.448 162.651 130.167C162.946 130.886 163.098 131.657 163.098 132.436C163.098 133.216 162.946 133.987 162.651 134.706C162.356 135.425 161.923 136.077 161.379 136.625L100.958 198.13C100.42 198.685 99.7789 199.126 99.0719 199.427C98.3649 199.728 97.6062 199.883 96.8399 199.883C96.0736 199.883 95.3149 199.728 94.6079 199.427C93.9009 199.126 93.2597 198.685 92.7215 198.13L69.1534 174.102C68.6122 173.552 68.1829 172.898 67.89 172.179C67.5971 171.459 67.4463 170.688 67.4463 169.91C67.4463 169.131 67.5971 168.36 67.89 167.641C68.1829 166.921 68.6122 166.268 69.1534 165.717L97.733 136.625C98.8238 135.514 99.4365 134.007 99.4365 132.436C99.4365 130.865 98.8238 129.359 97.733 128.248Z" fill="#7EE49C"/>
<path d="M130.39 128.248L101.085 99.1627C100.53 98.6124 100.09 97.9589 99.7892 97.2395C99.4888 96.5202 99.3341 95.7491 99.3341 94.9704C99.3341 94.1917 99.4888 93.4207 99.7892 92.7013C100.09 91.982 100.53 91.3284 101.085 90.7781L125.25 66.7431C125.802 66.1877 126.46 65.7468 127.185 65.4458C127.91 65.1449 128.688 64.9899 129.474 64.9899C130.26 64.9899 131.038 65.1449 131.763 65.4458C132.488 65.7468 133.146 66.1877 133.698 66.7431L195.668 128.248C196.226 128.795 196.67 129.448 196.972 130.167C197.275 130.886 197.431 131.657 197.431 132.436C197.431 133.216 197.275 133.987 196.972 134.706C196.67 135.425 196.226 136.077 195.668 136.625L133.698 198.13C133.146 198.685 132.488 199.126 131.763 199.427C131.038 199.728 130.26 199.883 129.474 199.883C128.688 199.883 127.91 199.728 127.185 199.427C126.46 199.126 125.802 198.685 125.25 198.13L101.078 174.102C100.523 173.552 100.082 172.898 99.7818 172.179C99.4814 171.459 99.3267 170.688 99.3267 169.91C99.3267 169.131 99.4814 168.36 99.7818 167.641C100.082 166.921 100.523 166.268 101.078 165.717L130.39 136.625C131.509 135.514 132.137 134.007 132.137 132.436C132.137 130.865 131.509 129.359 130.39 128.248Z" fill="#7EE49C"/>
</svg>
